<?xml version="1.0" encoding="UTF-8"?>
<svg id="Layer_1" xmlns="http://www.w3.org/2000/svg" version="1.1" viewBox="0 0 383.76 185.31">
  <!-- Generator: Adobe Illustrator 29.8.7, SVG Export Plug-In . SVG Version: 2.1.1 Build 1)  -->
  <defs>
    <style>
      .st0 {
        font-size: 4.15px;
      }

      .st0, .st1, .st2, .st3, .st4, .st5, .st6, .st7 {
        isolation: isolate;
      }

      .st0, .st4 {
        fill: #231f20;
        font-family: Arial-BoldMT, Arial;
        font-weight: 700;
      }

      .st1 {
        font-size: 2.62px;
      }

      .st1, .st2, .st5, .st6, .st7 {
        fill: #f7941d;
        font-family: ArialMT, Arial;
      }

      .st2, .st5 {
        font-size: 2.62px;
      }

      .st8 {
        fill: none;
      }

      .st8, .st9 {
        stroke: #231f20;
        stroke-miterlimit: 10;
        stroke-width: .5px;
      }

      .st4 {
        font-size: 4.75px;
      }

      .st5 {
        letter-spacing: -.04em;
      }

      .st6 {
        font-size: 3.16px;
      }

      .st7 {
        font-size: 2.77px;
      }

      .st9 {
        fill: #fff;
      }
    </style>
  </defs>
  <rect class="st9" x="77.62" y="75.31" width="38.94" height="69.19"/>
  <g class="st3">
    <text class="st0" transform="translate(92.71 83) scale(.95 1)"><tspan x="0" y="0">3614</tspan></text>
  </g>
  <rect class="st9" x="38.98" y="75.31" width="38.94" height="69.19"/>
  <g class="st3">
    <text class="st0" transform="translate(54.07 83) scale(.95 1)"><tspan x="0" y="0">3608</tspan></text>
  </g>
  <rect class="st9" x=".26" y="75.31" width="38.94" height="69.19"/>
  <g class="st3">
    <text class="st0" transform="translate(15.36 83) scale(.95 1)"><tspan x="0" y="0">3606</tspan></text>
  </g>
  <rect class="st9" x="154.98" y="75.31" width="38.94" height="69.19"/>
  <g class="st3">
    <text class="st0" transform="translate(170.07 83) scale(.95 1)"><tspan x="0" y="0">3622</tspan></text>
  </g>
  <rect class="st9" x="116.56" y="75.31" width="38.94" height="69.19"/>
  <g class="st3">
    <text class="st0" transform="translate(131.66 83) scale(.95 1)"><tspan x="0" y="0">3616</tspan></text>
  </g>
  <rect class="st9" x="311.43" y="75.3" width="38.94" height="69.19"/>
  <g class="st3">
    <text class="st4" transform="translate(363.68 15.48) scale(.95 1)"><tspan x="0" y="0">NUB</tspan></text>
  </g>
  <line class="st8" x1="120.54" y1="144.62" x2="128.38" y2="144.57"/>
  <line class="st8" x1="128.36" y1="144.5" x2="128.41" y2="152.8"/>
  <path class="st8" d="M128.34,152.69c-4.25.03-7.7-3.54-7.72-7.98"/>
  <line class="st8" x1="112.21" y1="144.62" x2="104.38" y2="144.57"/>
  <line class="st8" x1="104.39" y1="144.5" x2="104.34" y2="152.8"/>
  <path class="st8" d="M104.42,152.69c4.25.03,7.7-3.54,7.72-7.98"/>
  <line class="st8" x1="43.24" y1="144.62" x2="51.08" y2="144.57"/>
  <line class="st8" x1="51.06" y1="144.5" x2="51.11" y2="152.8"/>
  <path class="st8" d="M51.04,152.69c-4.25.03-7.7-3.54-7.72-7.98"/>
  <line class="st8" x1="35.29" y1="144.62" x2="27.45" y2="144.57"/>
  <line class="st8" x1="27.47" y1="144.5" x2="27.42" y2="152.8"/>
  <path class="st8" d="M27.49,152.69c4.25.03,7.7-3.54,7.72-7.98"/>
  <line class="st8" x1="189.84" y1="144.62" x2="182.01" y2="144.57"/>
  <line class="st8" x1="182.02" y1="144.5" x2="181.98" y2="152.8"/>
  <path class="st8" d="M182.05,152.69c4.25.03,7.7-3.54,7.72-7.98"/>
  <line class="st8" x1="47.25" y1="83.9" x2="39.41" y2="83.8"/>
  <line class="st8" x1="39.43" y1="83.72" x2="39.34" y2="92.02"/>
  <path class="st8" d="M39.41,91.91c4.24.06,7.72-3.49,7.77-7.93"/>
  <line class="st8" x1="31.29" y1="83.85" x2="39.12" y2="83.8"/>
  <line class="st8" x1="39.11" y1="83.72" x2="39.15" y2="92.02"/>
  <path class="st8" d="M39.08,91.91c-4.25.03-7.7-3.54-7.72-7.98"/>
  <line class="st8" x1="85.9" y1="83.9" x2="78.06" y2="83.8"/>
  <line class="st8" x1="78.08" y1="83.72" x2="77.99" y2="92.02"/>
  <path class="st8" d="M78.06,91.91c4.24.06,7.72-3.49,7.77-7.93"/>
  <line class="st8" x1="69.94" y1="83.85" x2="77.78" y2="83.8"/>
  <line class="st8" x1="77.76" y1="83.72" x2="77.8" y2="92.02"/>
  <path class="st8" d="M77.73,91.91c-4.25.03-7.7-3.54-7.72-7.98"/>
  <line class="st8" x1="124.55" y1="83.9" x2="116.71" y2="83.8"/>
  <line class="st8" x1="116.73" y1="83.72" x2="116.63" y2="92.02"/>
  <path class="st8" d="M116.7,91.91c4.24.06,7.72-3.49,7.77-7.93"/>
  <line class="st8" x1="108.58" y1="83.85" x2="116.42" y2="83.8"/>
  <line class="st8" x1="116.4" y1="83.72" x2="116.44" y2="92.02"/>
  <path class="st8" d="M116.37,91.91c-4.25.03-7.7-3.54-7.72-7.98"/>
  <line class="st8" x1="163.48" y1="83.9" x2="155.65" y2="83.8"/>
  <line class="st8" x1="155.67" y1="83.72" x2="155.57" y2="92.02"/>
  <path class="st8" d="M155.64,91.91c4.24.06,7.72-3.49,7.77-7.93"/>
  <line class="st8" x1="147.52" y1="83.85" x2="155.36" y2="83.8"/>
  <line class="st8" x1="155.34" y1="83.72" x2="155.39" y2="92.02"/>
  <path class="st8" d="M155.32,91.91c-4.25.03-7.7-3.54-7.72-7.98"/>
  <rect class="st8" x="51.8" y="98.18" width="6.17" height="18.54"/>
  <g class="st3">
    <text class="st2" transform="translate(54.28 107.27) rotate(91.46) scale(1.06 1) skewX(-.16)"><tspan x="0" y="0">Huron</tspan></text>
  </g>
  <rect class="st8" x="11.86" y="134.62" width="15.73" height="5.53"/>
  <g class="st3">
    <text class="st7" transform="translate(19.73 138.13) scale(.95 1)"><tspan x="0" y="0">ISCO</tspan></text>
  </g>
  <rect class="st8" x="58.74" y="98.17" width="6.17" height="18.54"/>
  <g class="st3">
    <text class="st2" transform="translate(61.23 106.5) rotate(91.46) scale(1.06 1) skewX(-.16)"><tspan x="0" y="0">GCMS</tspan></text>
  </g>
  <rect class="st8" x="51.75" y="132.2" width="13.39" height="5.53"/>
  <g class="st3">
    <text class="st7" transform="translate(58.68 135.7) scale(.95 1)"><tspan x="0" y="0">SPS</tspan></text>
  </g>
  <g class="st3">
    <text class="st1" transform="translate(177.97 105.79) rotate(90) scale(1.06 1)"><tspan x="0" y="0">Ganges</tspan></text>
  </g>
  <g class="st3">
    <text class="st1" transform="translate(177.97 129.78) rotate(90) scale(1.06 1)"><tspan x="0" y="0">Nile</tspan></text>
  </g>
  <g class="st3">
    <text class="st1" transform="translate(188.41 123.31) rotate(90) scale(1.06 1)"><tspan x="0" y="0">Huanghe</tspan></text>
  </g>
  <g class="st3">
    <text class="st6" transform="translate(366.82 31.65) scale(.95 1)"><tspan x="0" y="0">Colorado</tspan></text>
  </g>
  <rect class="st8" x="175.59" y="98.07" width="6.17" height="18.7"/>
  <rect class="st8" x="356.45" y="18.37" width="24.48" height="6.33"/>
  <g class="st3">
    <text class="st6" transform="translate(367.49 22.38) scale(.95 1)"><tspan x="0" y="0">NUB GB</tspan></text>
  </g>
  <g class="st3">
    <text class="st2" transform="translate(72.5 106.78) rotate(91.46) scale(1.06 1) skewX(-.16)"><tspan x="0" y="0">GB</tspan></text>
  </g>
  <rect class="st8" x="70.11" y="98.17" width="6.17" height="13.83"/>
  <g class="st3">
    <text class="st2" transform="translate(72.52 119.71) rotate(91.46) scale(1.06 1) skewX(-.16)"><tspan x="0" y="0">OT2</tspan></text>
  </g>
  <rect class="st8" x="70.11" y="112.27" width="6.17" height="13.83"/>
  <rect class="st8" x="70.11" y="126.37" width="6.17" height="13.83"/>
  <g class="st3">
    <text class="st2" transform="translate(72.54 132.2) rotate(91.46) scale(1.06 1) skewX(-.16)"><tspan x="0" y="0">Mosq</tspan></text>
  </g>
  <g class="st3">
    <text class="st2" transform="translate(159.54 106.76) rotate(91.46) scale(1.06 1) skewX(-.16)"><tspan x="0" y="0">GB</tspan></text>
  </g>
  <rect class="st8" x="157.14" y="98.16" width="6.17" height="13.83"/>
  <g class="st3">
    <text class="st2" transform="translate(159.56 119.7) rotate(91.46) scale(1.06 1) skewX(-.16)"><tspan x="0" y="0">OT2</tspan></text>
  </g>
  <rect class="st8" x="157.15" y="112.25" width="6.17" height="13.83"/>
  <rect class="st8" x="157.15" y="126.35" width="6.17" height="13.83"/>
  <g class="st3">
    <text class="st2" transform="translate(159.58 132.18) rotate(91.46) scale(1.06 1) skewX(-.16)"><tspan x="0" y="0">Mosq</tspan></text>
  </g>
  <rect class="st8" x="175.54" y="117.01" width="6.17" height="18.7"/>
  <rect class="st8" x="186.02" y="117.01" width="6.17" height="18.7"/>
  <g class="st3">
    <text class="st2" transform="translate(61.18 125.62) rotate(91.46) scale(1.06 1) skewX(-.16)"><tspan x="0" y="0">GV</tspan></text>
  </g>
  <rect class="st8" x="58.74" y="117.02" width="6.17" height="13.83"/>
  <rect class="st8" x="147.53" y="98.17" width="6.17" height="18.54"/>
  <g class="st3">
    <text class="st2" transform="translate(150.01 105.81) rotate(91.46) scale(1.06 1) skewX(-.16)"><tspan x="0" y="0">Biotage</tspan></text>
  </g>
  <rect class="st8" x="168.41" y="121.88" width="6.17" height="13.83"/>
  <g class="st3">
    <text class="st5" transform="translate(170.85 130.12) rotate(91.46) scale(1.06 1) skewX(-.16)"><tspan x="0" y="0">L</tspan></text>
    <text class="st2" transform="translate(170.81 131.56) rotate(91.46) scale(1.06 1) skewX(-.16)"><tspan x="0" y="0">yo</tspan></text>
  </g>
  <rect class="st8" x="356.45" y="27.64" width="24.48" height="6.33"/>
  <rect class="st8" x="356.35" y="46.09" width="24.48" height="6.33"/>
  <rect class="st8" x="356.35" y="52.14" width="24.48" height="6.33"/>
  <rect class="st8" x="356.45" y="58.62" width="24.48" height="6.33"/>
  <rect class="st8" x="356.45" y="65.1" width="24.48" height="6.33"/>
  <rect class="st8" x="356.45" y="71.61" width="24.48" height="6.33"/>
  <rect class="st8" x="356.45" y="77.66" width="24.48" height="6.33"/>
  <g class="st3">
    <text class="st6" transform="translate(364.81 50.1) scale(.95 1)"><tspan x="0" y="0">Incubator1</tspan></text>
  </g>
  <rect class="st8" x="356.45" y="37.18" width="12.07" height="6.33"/>
  <g class="st3">
    <text class="st6" transform="translate(363.26 41.19) scale(.95 1)"><tspan x="0" y="0">-80</tspan></text>
  </g>
  <g class="st3">
    <text class="st6" transform="translate(364.81 56.15) scale(.95 1)"><tspan x="0" y="0">Incubator2</tspan></text>
  </g>
  <g class="st3">
    <text class="st6" transform="translate(364.81 62.62) scale(.95 1)"><tspan x="0" y="0">Incubator3</tspan></text>
  </g>
  <g class="st3">
    <text class="st6" transform="translate(364.81 69.11) scale(.95 1)"><tspan x="0" y="0">Incubator4</tspan></text>
  </g>
  <g class="st3">
    <text class="st6" transform="translate(364.81 75.62) scale(.95 1)"><tspan x="0" y="0">Incubator5</tspan></text>
  </g>
  <g class="st3">
    <text class="st6" transform="translate(364.81 81.67) scale(.95 1)"><tspan x="0" y="0">Incubator6</tspan></text>
  </g>
  <rect class="st8" x="368.86" y="37.18" width="12.07" height="6.33"/>
  <g class="st3">
    <text class="st6" transform="translate(374.14 41.19) scale(.95 1)"><tspan x="0" y="0">OT2</tspan></text>
  </g>
  <rect class="st9" x="194.01" y="75.31" width="38.94" height="69.19"/>
  <rect class="st9" x="233.15" y="75.31" width="38.94" height="69.19"/>
  <rect class="st9" x="272.29" y="75.31" width="38.94" height="69.19"/>
  <g class="st3">
    <text class="st0" transform="translate(247.13 82.47) scale(.95 1)"><tspan x="0" y="0">3630</tspan></text>
  </g>
  <g class="st3">
    <text class="st0" transform="translate(208.49 82.47) scale(.95 1)"><tspan x="0" y="0">3624</tspan></text>
  </g>
  <g class="st3">
    <text class="st0" transform="translate(324.49 82.47) scale(.95 1)"><tspan x="0" y="0">3634</tspan></text>
  </g>
  <g class="st3">
    <text class="st0" transform="translate(285.08 82.47) scale(.95 1)"><tspan x="0" y="0">3632</tspan></text>
  </g>
  <path class="st8" d="M193.93,91.42c4.24.06,7.72-3.49,7.77-7.93"/>
  <path class="st8" d="M193.6,91.42c-4.25.03-7.7-3.54-7.72-7.98"/>
  <path class="st8" d="M233.57,91.42c4.24.06,7.72-3.49,7.77-7.93"/>
  <path class="st8" d="M233.24,91.42c-4.25.03-7.7-3.54-7.72-7.98"/>
  <path class="st8" d="M272.52,91.42c4.24.06,7.72-3.49,7.77-7.93"/>
  <path class="st8" d="M272.19,91.42c-4.25.03-7.7-3.54-7.72-7.98"/>
  <path class="st8" d="M311.72,91.42c4.24.06,7.72-3.49,7.77-7.93"/>
  <path class="st8" d="M311.39,91.42c-4.25.03-7.7-3.54-7.72-7.98"/>
  <line class="st8" x1="201.56" y1="83.61" x2="193.72" y2="83.5"/>
  <line class="st8" x1="185.6" y1="83.56" x2="193.44" y2="83.5"/>
  <line class="st8" x1="241.56" y1="83.61" x2="233.72" y2="83.5"/>
  <line class="st8" x1="225.6" y1="83.56" x2="233.44" y2="83.5"/>
  <line class="st8" x1="280.56" y1="83.61" x2="272.72" y2="83.5"/>
  <line class="st8" x1="264.6" y1="83.56" x2="272.44" y2="83.5"/>
  <line class="st8" x1="319.56" y1="83.61" x2="311.72" y2="83.5"/>
  <line class="st8" x1="303.6" y1="83.56" x2="311.44" y2="83.5"/>
</svg>